<svg xmlns="http://www.w3.org/2000/svg" width="800" height="1180" viewBox="0 0 800 1180">
  <defs>
    <linearGradient id="bg2" x1="0" y1="0" x2="1" y2="1">
      <stop offset="0" stop-color="#0a0b16"/><stop offset="1" stop-color="#05060c"/>
    </linearGradient>
    <radialGradient id="orb2" cx="0.5" cy="0.5" r="0.5">
      <stop offset="0" stop-color="#6366f1" stop-opacity="0.9"/>
      <stop offset="0.5" stop-color="#22d3ee" stop-opacity="0.4"/>
      <stop offset="1" stop-color="#22d3ee" stop-opacity="0"/>
    </radialGradient>
    <radialGradient id="orb22" cx="0.5" cy="0.5" r="0.5">
      <stop offset="0" stop-color="#0ea5e9" stop-opacity="0.85"/>
      <stop offset="1" stop-color="#0ea5e9" stop-opacity="0"/>
    </radialGradient>
    <filter id="soft2" x="-50%" y="-50%" width="200%" height="200%"><feGaussianBlur stdDeviation="34"/></filter>
    <filter id="g2"><feTurbulence type="fractalNoise" baseFrequency="0.9" numOctaves="2" stitchTiles="stitch"/><feColorMatrix type="saturate" values="0"/><feComponentTransfer><feFuncA type="linear" slope="0.06"/></feComponentTransfer><feComposite operator="over" in2="SourceGraphic"/></filter>
  </defs>
  <rect width="800" height="1180" fill="url(#bg2)"/>
  <g opacity="0.06"><line x1="0" y1="0" x2="800" y2="0" stroke="#fff" stroke-width="1"/><line x1="0" y1="64" x2="800" y2="64" stroke="#fff" stroke-width="1"/><line x1="0" y1="128" x2="800" y2="128" stroke="#fff" stroke-width="1"/><line x1="0" y1="192" x2="800" y2="192" stroke="#fff" stroke-width="1"/><line x1="0" y1="256" x2="800" y2="256" stroke="#fff" stroke-width="1"/><line x1="0" y1="320" x2="800" y2="320" stroke="#fff" stroke-width="1"/><line x1="0" y1="384" x2="800" y2="384" stroke="#fff" stroke-width="1"/><line x1="0" y1="448" x2="800" y2="448" stroke="#fff" stroke-width="1"/><line x1="0" y1="512" x2="800" y2="512" stroke="#fff" stroke-width="1"/><line x1="0" y1="576" x2="800" y2="576" stroke="#fff" stroke-width="1"/><line x1="0" y1="640" x2="800" y2="640" stroke="#fff" stroke-width="1"/><line x1="0" y1="704" x2="800" y2="704" stroke="#fff" stroke-width="1"/><line x1="0" y1="768" x2="800" y2="768" stroke="#fff" stroke-width="1"/><line x1="0" y1="832" x2="800" y2="832" stroke="#fff" stroke-width="1"/><line x1="0" y1="896" x2="800" y2="896" stroke="#fff" stroke-width="1"/><line x1="0" y1="960" x2="800" y2="960" stroke="#fff" stroke-width="1"/><line x1="0" y1="1024" x2="800" y2="1024" stroke="#fff" stroke-width="1"/><line x1="0" y1="1088" x2="800" y2="1088" stroke="#fff" stroke-width="1"/><line x1="0" y1="1152" x2="800" y2="1152" stroke="#fff" stroke-width="1"/><line x1="0" y1="0" x2="0" y2="1180" stroke="#fff" stroke-width="1"/><line x1="64" y1="0" x2="64" y2="1180" stroke="#fff" stroke-width="1"/><line x1="128" y1="0" x2="128" y2="1180" stroke="#fff" stroke-width="1"/><line x1="192" y1="0" x2="192" y2="1180" stroke="#fff" stroke-width="1"/><line x1="256" y1="0" x2="256" y2="1180" stroke="#fff" stroke-width="1"/><line x1="320" y1="0" x2="320" y2="1180" stroke="#fff" stroke-width="1"/><line x1="384" y1="0" x2="384" y2="1180" stroke="#fff" stroke-width="1"/><line x1="448" y1="0" x2="448" y2="1180" stroke="#fff" stroke-width="1"/><line x1="512" y1="0" x2="512" y2="1180" stroke="#fff" stroke-width="1"/><line x1="576" y1="0" x2="576" y2="1180" stroke="#fff" stroke-width="1"/><line x1="640" y1="0" x2="640" y2="1180" stroke="#fff" stroke-width="1"/><line x1="704" y1="0" x2="704" y2="1180" stroke="#fff" stroke-width="1"/><line x1="768" y1="0" x2="768" y2="1180" stroke="#fff" stroke-width="1"/></g>
  
      <circle cx="240" cy="354" r="300" fill="url(#orb2)" filter="url(#soft2)"/>
      <circle cx="600" cy="826" r="280" fill="url(#orb22)" filter="url(#soft2)"/>
      <circle cx="640" cy="236" r="180" fill="#0ea5e9" fill-opacity="0.25" filter="url(#soft2)"/>
  <rect width="800" height="1180" filter="url(#g2)" opacity="0.5"/>
  <rect width="800" height="1180" fill="url(#vig2)"/>
  <radialGradient id="vig2" cx="0.5" cy="0.45" r="0.75"><stop offset="0.55" stop-color="#000" stop-opacity="0"/><stop offset="1" stop-color="#000" stop-opacity="0.55"/></radialGradient>
</svg>