<svg xmlns="http://www.w3.org/2000/svg" viewBox="0 0 1100 1100" width="1100" height="1100"><defs><linearGradient id="glass" x1="0" y1="0" x2="1" y2="0"><stop offset="0" stop-color="#4E3315"/><stop offset=".13" stop-color="#8E6027"/><stop offset=".34" stop-color="#C79A4E"/><stop offset=".5" stop-color="#B78A3E"/><stop offset=".74" stop-color="#7B5222"/><stop offset="1" stop-color="#40290F"/></linearGradient><linearGradient id="cap" x1="0" y1="0" x2="1" y2="0"><stop offset="0" stop-color="#08150F"/><stop offset=".26" stop-color="#1F4D3A"/><stop offset=".5" stop-color="#2E6A4F"/><stop offset=".78" stop-color="#173A2B"/><stop offset="1" stop-color="#08150F"/></linearGradient><linearGradient id="label" x1="0" y1="0" x2="1" y2="0"><stop offset="0" stop-color="#DFD7C1"/><stop offset=".32" stop-color="#F7F3E8"/><stop offset=".7" stop-color="#F2ECDC"/><stop offset="1" stop-color="#D8CFB6"/></linearGradient><linearGradient id="marble" x1="0" y1="0" x2=".6" y2="1"><stop offset="0" stop-color="#F3EEE1"/><stop offset=".45" stop-color="#EBE4D3"/><stop offset="1" stop-color="#DED5C0"/></linearGradient><radialGradient id="pool" cx=".3" cy=".18" r=".8"><stop offset="0" stop-color="#FFFCF2" stop-opacity=".85"/><stop offset="1" stop-color="#FFFCF2" stop-opacity="0"/></radialGradient><radialGradient id="vig" cx=".5" cy=".46" r=".72"><stop offset=".55" stop-color="#3B3122" stop-opacity="0"/><stop offset="1" stop-color="#3B3122" stop-opacity=".16"/></radialGradient><linearGradient id="petal" x1="0" y1="0" x2="1" y2="0"><stop offset="0" stop-color="#C88A2C"/><stop offset=".5" stop-color="#E2AE4E"/><stop offset="1" stop-color="#EFCB7C"/></linearGradient><filter id="blur6" x="-40%" y="-40%" width="180%" height="180%"><feGaussianBlur stdDeviation="6"/></filter><filter id="blur3" x="-40%" y="-40%" width="180%" height="180%"><feGaussianBlur stdDeviation="3"/></filter><filter id="blur26" x="-40%" y="-40%" width="180%" height="180%"><feGaussianBlur stdDeviation="26"/></filter><filter id="blur14" x="-40%" y="-40%" width="180%" height="180%"><feGaussianBlur stdDeviation="14"/></filter></defs><rect width="1100" height="1100" fill="url(#marble)"/><g stroke="#8C8064" fill="none" stroke-linecap="round"><path d="M-20 250C160 300 300 220 470 268 640 316 780 250 1120 300" stroke-opacity=".13" stroke-width="3"/><path d="M-20 300C140 372 320 292 500 336 700 384 860 320 1120 372" stroke-opacity=".07" stroke-width="2"/><path d="M-20 690C200 640 340 730 520 700 720 666 900 726 1120 690" stroke-opacity=".10" stroke-width="2.4"/><path d="M-20 940C180 990 380 900 560 942 760 988 920 930 1120 966" stroke-opacity=".08" stroke-width="2"/><path d="M240 -20C300 160 250 300 300 460" stroke-opacity=".06" stroke-width="2"/><path d="M900 -20C850 180 930 320 880 520" stroke-opacity=".05" stroke-width="2"/></g><rect width="1100" height="1100" fill="url(#pool)"/><ellipse cx="612" cy="846" rx="250" ry="40" fill="#4A3D28" opacity=".22" filter="url(#blur26)"/><ellipse cx="556" cy="840" rx="150" ry="22" fill="#3C3020" opacity=".3" filter="url(#blur14)"/><path d="M186 962C272 940 344 898 400 844" stroke="#5F7458" stroke-width="3" fill="none" opacity=".5"/><g transform="translate(330 856) rotate(-20)"><ellipse cx="0" cy="0" rx="104" ry="34" fill="#8FA684"/><ellipse cx="0" cy="0" rx="104" ry="34" fill="none" stroke="#5F7458" stroke-width="1.6" opacity=".55"/><path d="M-100 0H100" stroke="#5F7458" stroke-width="1.6" opacity=".5"/><path d="M-46 -6 -10 0M-46 6 -10 0M52 -7 12 0M52 7 12 0" stroke="#5F7458" stroke-width="1.2" opacity=".35" fill="none"/></g><g transform="translate(248 926) rotate(12)"><ellipse cx="0" cy="0" rx="88" ry="29" fill="#7E9573"/><ellipse cx="0" cy="0" rx="88" ry="29" fill="none" stroke="#556B4F" stroke-width="1.6" opacity=".55"/><path d="M-84 0H84" stroke="#556B4F" stroke-width="1.6" opacity=".5"/><path d="M-39 -6 -8 0M-39 6 -8 0M44 -7 10 0M44 7 10 0" stroke="#556B4F" stroke-width="1.2" opacity=".35" fill="none"/></g><g transform="translate(414 926) rotate(-8)"><ellipse cx="0" cy="0" rx="74" ry="25" fill="#9AAF8E"/><ellipse cx="0" cy="0" rx="74" ry="25" fill="none" stroke="#6B8064" stroke-width="1.6" opacity=".55"/><path d="M-70 0H70" stroke="#6B8064" stroke-width="1.6" opacity=".5"/><path d="M-33 -6 -7 0M-33 6 -7 0M37 -7 8 0M37 7 8 0" stroke="#6B8064" stroke-width="1.2" opacity=".35" fill="none"/></g><path d="M812 884C822 946 796 994 748 1022" stroke="#5F7458" stroke-width="3.4" fill="none" opacity=".6"/><g transform="translate(754 998) rotate(24)"><ellipse cx="0" cy="0" rx="52" ry="18" fill="#8FA684"/><ellipse cx="0" cy="0" rx="52" ry="18" fill="none" stroke="#5F7458" stroke-width="1.6" opacity=".55"/><path d="M-48 0H48" stroke="#5F7458" stroke-width="1.6" opacity=".5"/><path d="M-23 -6 -5 0M-23 6 -5 0M26 -7 6 0M26 7 6 0" stroke="#5F7458" stroke-width="1.2" opacity=".35" fill="none"/></g><g><g transform="rotate(0.0 812 860)"><ellipse cx="884.0" cy="860" rx="47.0" ry="15.0" fill="url(#petal)" opacity=".95"/></g><g transform="rotate(27.7 812 860)"><ellipse cx="884.0" cy="860" rx="47.0" ry="15.0" fill="url(#petal)" opacity=".95"/></g><g transform="rotate(55.4 812 860)"><ellipse cx="884.0" cy="860" rx="47.0" ry="15.0" fill="url(#petal)" opacity=".95"/></g><g transform="rotate(83.1 812 860)"><ellipse cx="884.0" cy="860" rx="47.0" ry="15.0" fill="url(#petal)" opacity=".95"/></g><g transform="rotate(110.8 812 860)"><ellipse cx="884.0" cy="860" rx="47.0" ry="15.0" fill="url(#petal)" opacity=".95"/></g><g transform="rotate(138.5 812 860)"><ellipse cx="884.0" cy="860" rx="47.0" ry="15.0" fill="url(#petal)" opacity=".95"/></g><g transform="rotate(166.2 812 860)"><ellipse cx="884.0" cy="860" rx="47.0" ry="15.0" fill="url(#petal)" opacity=".95"/></g><g transform="rotate(193.8 812 860)"><ellipse cx="884.0" cy="860" rx="47.0" ry="15.0" fill="url(#petal)" opacity=".95"/></g><g transform="rotate(221.5 812 860)"><ellipse cx="884.0" cy="860" rx="47.0" ry="15.0" fill="url(#petal)" opacity=".95"/></g><g transform="rotate(249.2 812 860)"><ellipse cx="884.0" cy="860" rx="47.0" ry="15.0" fill="url(#petal)" opacity=".95"/></g><g transform="rotate(276.9 812 860)"><ellipse cx="884.0" cy="860" rx="47.0" ry="15.0" fill="url(#petal)" opacity=".95"/></g><g transform="rotate(304.6 812 860)"><ellipse cx="884.0" cy="860" rx="47.0" ry="15.0" fill="url(#petal)" opacity=".95"/></g><g transform="rotate(332.3 812 860)"><ellipse cx="884.0" cy="860" rx="47.0" ry="15.0" fill="url(#petal)" opacity=".95"/></g><g transform="rotate(14.0 812 860)"><ellipse cx="858.0" cy="860" rx="35.0" ry="13.0" fill="#EAC069" opacity=".95"/></g><g transform="rotate(46.7 812 860)"><ellipse cx="858.0" cy="860" rx="35.0" ry="13.0" fill="#EAC069" opacity=".95"/></g><g transform="rotate(79.5 812 860)"><ellipse cx="858.0" cy="860" rx="35.0" ry="13.0" fill="#EAC069" opacity=".95"/></g><g transform="rotate(112.2 812 860)"><ellipse cx="858.0" cy="860" rx="35.0" ry="13.0" fill="#EAC069" opacity=".95"/></g><g transform="rotate(144.9 812 860)"><ellipse cx="858.0" cy="860" rx="35.0" ry="13.0" fill="#EAC069" opacity=".95"/></g><g transform="rotate(177.6 812 860)"><ellipse cx="858.0" cy="860" rx="35.0" ry="13.0" fill="#EAC069" opacity=".95"/></g><g transform="rotate(210.4 812 860)"><ellipse cx="858.0" cy="860" rx="35.0" ry="13.0" fill="#EAC069" opacity=".95"/></g><g transform="rotate(243.1 812 860)"><ellipse cx="858.0" cy="860" rx="35.0" ry="13.0" fill="#EAC069" opacity=".95"/></g><g transform="rotate(275.8 812 860)"><ellipse cx="858.0" cy="860" rx="35.0" ry="13.0" fill="#EAC069" opacity=".95"/></g><g transform="rotate(308.5 812 860)"><ellipse cx="858.0" cy="860" rx="35.0" ry="13.0" fill="#EAC069" opacity=".95"/></g><g transform="rotate(341.3 812 860)"><ellipse cx="858.0" cy="860" rx="35.0" ry="13.0" fill="#EAC069" opacity=".95"/></g><circle cx="812" cy="860" r="25" fill="#A8712A"/><circle cx="812" cy="860" r="25" fill="none" stroke="#7E5219" stroke-width="1.5" opacity=".6"/><g transform="rotate(0.0 812 860)"><ellipse cx="825.0" cy="860" rx="6.0" ry="5.0" fill="#E7C583" opacity=".9"/></g><g transform="rotate(40.0 812 860)"><ellipse cx="825.0" cy="860" rx="6.0" ry="5.0" fill="#E7C583" opacity=".9"/></g><g transform="rotate(80.0 812 860)"><ellipse cx="825.0" cy="860" rx="6.0" ry="5.0" fill="#E7C583" opacity=".9"/></g><g transform="rotate(120.0 812 860)"><ellipse cx="825.0" cy="860" rx="6.0" ry="5.0" fill="#E7C583" opacity=".9"/></g><g transform="rotate(160.0 812 860)"><ellipse cx="825.0" cy="860" rx="6.0" ry="5.0" fill="#E7C583" opacity=".9"/></g><g transform="rotate(200.0 812 860)"><ellipse cx="825.0" cy="860" rx="6.0" ry="5.0" fill="#E7C583" opacity=".9"/></g><g transform="rotate(240.0 812 860)"><ellipse cx="825.0" cy="860" rx="6.0" ry="5.0" fill="#E7C583" opacity=".9"/></g><g transform="rotate(280.0 812 860)"><ellipse cx="825.0" cy="860" rx="6.0" ry="5.0" fill="#E7C583" opacity=".9"/></g><g transform="rotate(320.0 812 860)"><ellipse cx="825.0" cy="860" rx="6.0" ry="5.0" fill="#E7C583" opacity=".9"/></g></g><g transform="translate(270 190) scale(1.4)"><rect x="152" y="26" width="96" height="88" rx="8" fill="url(#cap)"/>
<g stroke="#F5F1E6" stroke-width="1.4" opacity=".14">
<path d="M168 34v72M180 34v72M192 34v72M204 34v72M216 34v72M228 34v72"/>
</g>
<rect x="160" y="34" width="12" height="72" rx="6" fill="#F5F1E6" opacity=".16" filter="url(#blur3)"/>
<rect x="145" y="106" width="110" height="24" rx="6" fill="url(#cap)"/>
<rect x="145" y="106" width="110" height="24" rx="6" fill="#08150F" opacity=".28"/>
<rect x="156" y="110" width="10" height="16" rx="5" fill="#F5F1E6" opacity=".14"/>
<path d="M175 128h50v38c0 10 4 15 12 21 40 30 55 55 55 92v168a14 14 0 0 1-14 14H122a14 14 0 0 1-14-14V279c0-37 15-62 55-92 8-6 12-11 12-21z" fill="url(#glass)"/>
<path d="M175 128h50v38c0 10 4 15 12 21 40 30 55 55 55 92v168a14 14 0 0 1-14 14H122a14 14 0 0 1-14-14V279c0-37 15-62 55-92 8-6 12-11 12-21z" fill="none" stroke="#33200B" stroke-width="1.6" opacity=".5"/>
<rect x="126" y="206" width="20" height="224" rx="10" fill="#F8EFD9" opacity=".22" filter="url(#blur6)"/>
<rect x="268" y="212" width="16" height="214" rx="8" fill="#241505" opacity=".26" filter="url(#blur6)"/>
<ellipse cx="200" cy="452" rx="76" ry="12" fill="#2A1907" opacity=".3" filter="url(#blur3)"/>
<rect x="124" y="250" width="152" height="170" rx="9" fill="url(#label)"/>
<rect x="124" y="250" width="152" height="170" rx="9" fill="none" stroke="#B8893B" stroke-width="1" opacity=".45"/>
<text x="200" y="308" text-anchor="middle" font-family="Georgia,'Iowan Old Style',Palatino,serif" font-size="43" fill="#123124">Alora</text>
<rect x="170" y="322" width="60" height="1" fill="#B8893B" opacity=".7"/>
<text x="200" y="348" text-anchor="middle" font-family="'Helvetica Neue',Helvetica,Arial,sans-serif" font-size="10" letter-spacing="3.2" fill="#3D6B54">KRÄUTERAUSZUG</text>
<text x="200" y="368" text-anchor="middle" font-family="'Helvetica Neue',Helvetica,Arial,sans-serif" font-size="7.6" letter-spacing="1.9" fill="#6B7A6F">FLÜSSIG · VIER PFLANZEN</text>
<text x="200" y="402" text-anchor="middle" font-family="Georgia,'Iowan Old Style',Palatino,serif" font-style="italic" font-size="21" fill="#123124">60 ml</text></g><g opacity=".55"><g transform="translate(902 272) rotate(-34)"><ellipse cx="0" cy="0" rx="64" ry="21" fill="#9AAF8E"/><ellipse cx="0" cy="0" rx="64" ry="21" fill="none" stroke="#6B8064" stroke-width="1.6" opacity=".55"/><path d="M-60 0H60" stroke="#6B8064" stroke-width="1.6" opacity=".5"/><path d="M-28 -6 -6 0M-28 6 -6 0M32 -7 7 0M32 7 7 0" stroke="#6B8064" stroke-width="1.2" opacity=".35" fill="none"/></g><g transform="translate(952 344) rotate(22)"><ellipse cx="0" cy="0" rx="52" ry="17" fill="#8FA684"/><ellipse cx="0" cy="0" rx="52" ry="17" fill="none" stroke="#5F7458" stroke-width="1.6" opacity=".55"/><path d="M-48 0H48" stroke="#5F7458" stroke-width="1.6" opacity=".5"/><path d="M-23 -6 -5 0M-23 6 -5 0M26 -7 6 0M26 7 6 0" stroke="#5F7458" stroke-width="1.2" opacity=".35" fill="none"/></g><path d="M858 230C904 278 932 314 972 370" stroke="#6B8064" stroke-width="2.4" fill="none" opacity=".5"/></g><rect width="1100" height="1100" fill="url(#vig)"/></svg>